<svg xmlns="http://www.w3.org/2000/svg" viewBox="0 0 64 64">
  <rect width="64" height="64" fill="#0f172a" rx="8"/>
  <rect x="12" y="14" width="40" height="36" rx="3" fill="#1e293b"/>
  <rect x="15" y="17" width="34" height="28" fill="#0f172a"/>
  <line x1="18" y1="41" x2="46" y2="41" stroke="#475569" stroke-width="1.5"/>
  <rect x="20" y="32" width="5" height="9" rx="1" fill="#10b981" opacity="0.9"/>
  <rect x="27" y="26" width="5" height="15" rx="1" fill="#06b6d4" opacity="0.9"/>
  <rect x="34" y="29" width="5" height="12" rx="1" fill="#8b5cf6" opacity="0.9"/>
  <rect x="41" y="22" width="5" height="19" rx="1" fill="#10b981" opacity="0.9"/>
  <circle cx="22.5" cy="30" r="2" fill="#10b981"/>
  <circle cx="29.5" cy="24" r="2" fill="#06b6d4"/>
  <circle cx="36.5" cy="27" r="2" fill="#8b5cf6"/>
  <circle cx="43.5" cy="20" r="2" fill="#10b981"/>
  <line x1="22.5" y1="30" x2="29.5" y2="24" stroke="#475569" stroke-width="1.5"/>
  <line x1="29.5" y1="24" x2="36.5" y2="27" stroke="#475569" stroke-width="1.5"/>
  <line x1="36.5" y1="27" x2="43.5" y2="20" stroke="#475569" stroke-width="1.5"/>
</svg>
